TITLE ""
FILE "DISC2Track32.mp3" MP3
  TRACK 01 AUDIO
    TITLE "DISC2Track32_01"
    INDEX 01 00:00:00
  TRACK 02 AUDIO
    TITLE "DISC2Track32_02"
    INDEX 01 00:01:41
  TRACK 03 AUDIO
    TITLE "DISC2Track32_03"
    INDEX 01 00:01:67
  TRACK 04 AUDIO
    TITLE "DISC2Track32_04"
    INDEX 01 00:04:67
  TRACK 05 AUDIO
    TITLE "DISC2Track32_05"
    INDEX 01 00:05:15
  TRACK 06 AUDIO
    TITLE "DISC2Track32_06"
    INDEX 01 00:10:20
  TRACK 07 AUDIO
    TITLE "DISC2Track32_07"
    INDEX 01 00:13:46
  TRACK 08 AUDIO
    TITLE "DISC2Track32_08"
    INDEX 01 00:16:64
  TRACK 09 AUDIO
    TITLE "DISC2Track32_09"
    INDEX 01 00:17:15
  TRACK 10 AUDIO
    TITLE "DISC2Track32_10"
    INDEX 01 00:21:26
  TRACK 11 AUDIO
    TITLE "DISC2Track32_11"
    INDEX 01 00:25:04
  TRACK 12 AUDIO
    TITLE "DISC2Track32_12"
    INDEX 01 00:28:44
  TRACK 13 AUDIO
    TITLE "DISC2Track32_13"
    INDEX 01 00:29:00
  TRACK 14 AUDIO
    TITLE "DISC2Track32_14"
    INDEX 01 00:33:31
  TRACK 15 AUDIO
    TITLE "DISC2Track32_15"
    INDEX 01 00:37:33
  TRACK 16 AUDIO
    TITLE "DISC2Track32_16"
    INDEX 01 00:41:21
  TRACK 17 AUDIO
    TITLE "DISC2Track32_17"
    INDEX 01 00:41:50
  TRACK 18 AUDIO
    TITLE "DISC2Track32_18"
    INDEX 01 00:47:14
  TRACK 19 AUDIO
    TITLE "DISC2Track32_19"
    INDEX 01 00:51:41
  TRACK 20 AUDIO
    TITLE "DISC2Track32_20"
    INDEX 01 00:55:62
  TRACK 21 AUDIO
    TITLE "DISC2Track32_21"
    INDEX 01 00:56:07
  TRACK 22 AUDIO
    TITLE "DISC2Track32_22"
    INDEX 01 01:00:71
  TRACK 23 AUDIO
    TITLE "DISC2Track32_23"
    INDEX 01 01:05:10
  TRACK 24 AUDIO
    TITLE "DISC2Track32_24"
    INDEX 01 01:09:11
  TRACK 25 AUDIO
    TITLE "DISC2Track32_25"
    INDEX 01 01:09:37
  TRACK 26 AUDIO
    TITLE "DISC2Track32_26"
    INDEX 01 01:14:15
  TRACK 27 AUDIO
    TITLE "DISC2Track32_27"
    INDEX 01 01:17:70
  TRACK 28 AUDIO
    TITLE "DISC2Track32_28"
    INDEX 01 01:21:42
  TRACK 29 AUDIO
    TITLE "DISC2Track32_29"
    INDEX 01 01:21:70
  TRACK 30 AUDIO
    TITLE "DISC2Track32_30"
    INDEX 01 01:26:00
  TRACK 31 AUDIO
    TITLE "DISC2Track32_31"
    INDEX 01 01:29:22
  TRACK 32 AUDIO
    TITLE "DISC2Track32_32"
    INDEX 01 01:32:36
  TRACK 33 AUDIO
    TITLE "DISC2Track32_33"
    INDEX 01 01:32:60
  TRACK 34 AUDIO
    TITLE "DISC2Track32_34"
    INDEX 01 01:36:67
  TRACK 35 AUDIO
    TITLE "DISC2Track32_35"
    INDEX 01 01:39:54
  TRACK 36 AUDIO
    TITLE "DISC2Track32_36"
    INDEX 01 01:42:32
  TRACK 37 AUDIO
    TITLE "DISC2Track32_37"
    INDEX 01 01:42:58
  TRACK 38 AUDIO
    TITLE "DISC2Track32_38"
    INDEX 01 01:44:67
  TRACK 39 AUDIO
    TITLE "DISC2Track32_39"
    INDEX 01 01:47:06
  TRACK 40 AUDIO
    TITLE "DISC2Track32_40"
    INDEX 01 01:49:07
  TRACK 41 AUDIO
    TITLE "DISC2Track32_41"
    INDEX 01 01:49:29
  TRACK 42 AUDIO
    TITLE "DISC2Track32_42"
    INDEX 01 01:52:13
  TRACK 43 AUDIO
    TITLE "DISC2Track32_43"
    INDEX 01 01:54:51
  TRACK 44 AUDIO
    TITLE "DISC2Track32_44"
    INDEX 01 01:57:05
